<?xml version="1.0" encoding="utf-8"?>
<!-- Generator: Adobe Illustrator 16.0.0, SVG Export Plug-In . SVG Version: 6.00 Build 0)  -->
<!DOCTYPE svg PUBLIC "-//W3C//DTD SVG 1.1//EN" "http://www.w3.org/Graphics/SVG/1.1/DTD/svg11.dtd">
<svg version="1.1" id="Layer_1" xmlns="http://www.w3.org/2000/svg" xmlns:xlink="http://www.w3.org/1999/xlink" x="0px" y="0px"
	 width="308.985px" height="286.486px" viewBox="0 0 308.985 286.486" enable-background="new 0 0 308.985 286.486"
	 xml:space="preserve">
<rect x="-196.67" y="-239.101" display="none" fill="#333333" width="705.145" height="767.003"/>
<g display="none">
	<rect x="-525.848" y="-239.101" display="inline" fill="#191318" width="52.5" height="767.474"/>
	<rect x="-483.991" y="-239.101" display="inline" fill="#1D181C" width="52.5" height="767.474"/>
	<rect x="-442.134" y="-239.101" display="inline" fill="#201C20" width="52.5" height="767.474"/>
	<rect x="-400.277" y="-239.101" display="inline" fill="#242124" width="52.5" height="767.474"/>
	<rect x="-358.419" y="-239.101" display="inline" fill="#282527" width="52.5" height="767.474"/>
	<rect x="-316.563" y="-239.101" display="inline" fill="#2C2A2B" width="52.5" height="767.474"/>
	<rect x="-274.705" y="-239.101" display="inline" fill="#2F2E2F" width="52.5" height="767.474"/>
	<rect x="-232.848" y="-239.101" display="inline" fill="#333333" width="52.5" height="767.474"/>
</g>
<g display="none">
	<rect x="786.152" y="-240.534" display="inline" fill="#191318" width="52.5" height="768.436"/>
	<rect x="744.294" y="-240.534" display="inline" fill="#1D181C" width="52.5" height="768.436"/>
	<rect x="702.438" y="-240.534" display="inline" fill="#201C20" width="52.5" height="768.436"/>
	<rect x="660.581" y="-240.533" display="inline" fill="#242124" width="52.5" height="768.436"/>
	<rect x="618.723" y="-240.533" display="inline" fill="#282527" width="52.5" height="768.436"/>
	<rect x="576.867" y="-240.534" display="inline" fill="#2C2A2B" width="52.5" height="768.436"/>
	<rect x="535.009" y="-240.533" display="inline" fill="#2F2E2F" width="52.5" height="768.436"/>
	<rect x="493.152" y="-240.534" display="inline" fill="#333333" width="52.5" height="768.436"/>
</g>
<g>
	<text transform="matrix(1 0 0 1 98.2329 272.8623)" fill="#FFFFFF" font-family="'CenturyGothic'" font-size="19.2306">Framework that reads</text>
	<g>
		<g>
			<path fill="#FFFFFF" d="M103.394,189.216h8.311v53.73l23.367-0.127v8.027l-31.678,0.127V189.216z"/>
			<path fill="#FFFFFF" d="M145.755,189.344h7.914v61.503h-7.914V189.344z"/>
			<path fill="#FFFFFF" d="M167.123,189.344h8.084v8.987c2.41-3.541,4.955-6.189,7.631-7.941c2.676-1.753,5.465-2.629,8.367-2.629
				c2.186,0,4.521,0.697,7.01,2.092l-4.127,6.67c-1.66-0.715-3.053-1.074-4.184-1.074c-2.639,0-5.182,1.084-7.631,3.251
				c-2.451,2.167-4.316,5.53-5.598,10.09c-0.979,3.505-1.469,10.591-1.469,21.255v20.803h-8.084V189.344z"/>
			<path fill="#FFFFFF" d="M256.72,230.44l6.67,3.504c-2.188,4.297-4.715,7.764-7.582,10.401c-2.865,2.638-6.092,4.646-9.674,6.021
				c-3.584,1.375-7.639,2.063-12.166,2.063c-10.033,0-17.879-3.287-23.537-9.863s-8.486-14.01-8.486-22.301
				c0-7.801,2.395-14.754,7.186-20.859c6.072-7.763,14.201-11.645,24.385-11.645c10.486,0,18.859,3.977,25.121,11.928
				c4.451,5.615,6.713,12.625,6.789,21.028h-55.34c0.15,7.144,2.434,12.999,6.848,17.567c4.414,4.569,9.867,6.854,16.355,6.854
				c3.131,0,6.178-0.545,9.141-1.634c2.961-1.088,5.48-2.534,7.555-4.336C252.06,237.366,254.306,234.456,256.72,230.44z
				 M256.72,213.877c-1.057-4.221-2.594-7.593-4.613-10.118c-2.02-2.524-4.688-4.56-8.008-6.105
				c-3.32-1.545-6.811-2.318-10.471-2.318c-6.037,0-11.227,1.942-15.564,5.822c-3.17,2.827-5.566,7.066-7.188,12.72H256.72z"/>
		</g>
		<path opacity="0.5" fill="none" stroke="#FFFFFF" stroke-width="8" stroke-miterlimit="10" d="M72.902,272.902V126.548
			c0,0-13,42.229-63,42.229v62.126"/>
		<path opacity="0.5" fill="none" stroke="#FFFFFF" stroke-width="8.0181" stroke-miterlimit="10" d="M54.71,49.115
			c52.469,24.306,53.669,83.971,53.669,113.177"/>
		<path opacity="0.5" fill="none" stroke="#FFFFFF" stroke-width="8.0181" stroke-miterlimit="10" d="M67.075,9.046
			c80.93,37.49,82.781,129.518,82.781,174.564"/>
	</g>
</g>
<polygon display="none" fill="#86034E" points="-508.765,-159.098 819.902,-159.098 819.585,446.902 -473.098,446.902 
	-473.348,369.141 -295.098,369.568 -295.098,281.902 -165.098,283.152 -165.098,196.902 -141.098,196.902 -140.598,107.902 
	-293.598,107.902 -293.098,19.902 -355.098,19.902 -355.098,-71.098 -508.999,-71.848 "/>
</svg>
